<svg t="1639725461636" class="icon" viewBox="0 0 1024 1024" version="1.1" xmlns="http://www.w3.org/2000/svg" p-id="9593" width="200" height="200">
    <path d="M511.744 102.016c62.656 0 120.832 23.68 163.648 66.56 43.712 43.904 67.712 104.768 67.712 171.2a26.24 26.24 0 0 1-52.48 0c0-106.048-76.8-185.28-178.88-185.28-89.792 0-166.016 75.456-177.344 173.824l-1.088 15.168-0.192 107.072 499.904 0.064c13.888 0 25.472 10.048 27.84 23.232l0.512 5.12v414.72a28.352 28.352 0 0 1-23.232 27.84l-5.12 0.448H190.976a28.352 28.352 0 0 1-27.84-23.232l-0.512-5.12v-414.72c0-13.888 10.048-25.408 23.232-27.84l5.12-0.448 89.664 0.064 0.256-112.704c3.84-63.424 29.184-122.56 71.552-166.528 43.072-44.672 99.712-69.44 159.36-69.44z m297.088 401.024H215.104v366.4h593.728V503.04zM512 604.48a26.24 26.24 0 0 1 25.664 20.928l0.576 5.312v60.48a26.24 26.24 0 0 1-51.968 5.312L485.76 691.2v-60.48a26.24 26.24 0 0 1 26.24-26.24z" fill="#8A94A6" p-id="9594"></path>
</svg>